<?xml version="1.0" encoding="UTF-8"?>
<svg id="Layer_1" xmlns="http://www.w3.org/2000/svg" version="1.1" viewBox="0 0 1080 1080">
  <!-- Generator: Adobe Illustrator 30.2.1, SVG Export Plug-In . SVG Version: 2.1.1 Build 1)  -->
  <defs>
    <style>
      .st0 {
        fill: #1c3e70;
      }

      .st1 {
        fill: #008181;
      }
    </style>
  </defs>
  <path class="st0" d="M77.62,502.41c40.03,51.36,90.34,87.59,153.93,101.97,83.05,18.79,155.82-3.44,216.23-62.25,49.95-48.63,96.8-100.41,146.07-149.76,42.62-42.68,85.94-84.73,130.32-125.58,78.96-72.67,170.06-91.81,272.09-57.99,3.58,1.19,7.28,1.99,15.36,4.16-31.14-48.49-71.64-78.21-121.12-94.09-102.89-33.02-194.5-12.49-271.76,64.25-83.23,82.67-165.89,165.93-248.67,249.06-81.28,81.63-176.19,108.09-286.87,71.49-1.8-.6-3.72-.86-5.58-1.28Z"/>
  <g>
    <path class="st1" d="M830.34,238.29c54.21,18.55,84.94,51.54,92,102.88,6.15,44.7-10.54,81.95-45.77,109.83-48.2,38.14-113.68,33.16-159.17-11.31-20.58-20.12-40.72-40.7-58.79-58.8-32.54,29.78-64.35,58.9-96.35,88.19,69.25,82.8,144.45,147.43,258.51,139.1,163.76-11.96,274.41-171.45,221.79-333.5-1.38-4.24-3.75-9.47-7.25-11.53-62.9-36.91-129.05-48.95-204.97-24.86Z"/>
    <path class="st1" d="M419.7,334.58c8.16-7.16,11.76-10.06,15.07-13.27,27.4-26.54,54.74-53.13,82.64-80.23-55.35-60.3-108.37-118.3-191.61-132.65-93.91-16.19-174.91,9.41-237.94,80.7-63.68,72.04-78.01,156.51-49.98,248.15,1.59,5.21,5.53,11.2,10.09,13.79,60.87,34.46,124.86,47.19,193.28,25.89,1.68-.52,3.16-1.72,6.62-3.66-42.78-14.06-72.51-40.06-85.82-82.23-16.24-51.49,4.58-106.42,51.18-136.56,43.12-27.89,103.68-23.97,141.9,11.47,22.54,20.9,42.33,44.77,64.56,68.59Z"/>
  </g>
  <g>
    <path class="st0" d="M209.05,675.42v179.22h-34.06l-89.35-108.81v108.81h-40.96v-179.22h34.3l89.1,108.82v-108.82h40.97Z"/>
    <path class="st0" d="M382.89,797.03h-104.2c1.88,8.53,6.31,15.27,13.31,20.23,7,4.96,15.71,7.42,26.12,7.42,7.17,0,13.52-1.06,19.08-3.19,5.55-2.14,10.71-5.51,15.49-10.11l21.24,23.04c-12.97,14.85-31.91,22.27-56.83,22.27-15.54,0-29.28-3.02-41.22-9.09-11.94-6.05-21.16-14.46-27.65-25.22-6.49-10.75-9.73-22.95-9.73-36.61s3.2-25.64,9.6-36.48c6.4-10.84,15.18-19.29,26.37-25.35,11.18-6.05,23.68-9.08,37.51-9.08s25.68,2.9,36.61,8.71c10.92,5.8,19.5,14.13,25.73,24.96,6.23,10.84,9.35,23.42,9.35,37.76,0,.51-.26,4.09-.77,10.75ZM289.44,752.74c-6.14,5.11-9.9,12.11-11.26,20.99h67.85c-1.36-8.71-5.13-15.66-11.26-20.87-6.15-5.21-13.66-7.81-22.54-7.81s-16.64,2.56-22.79,7.68Z"/>
    <path class="st0" d="M494.01,854.64l-30.22-42.24-31.23,42.24h-43.53l52.99-69.38-51.2-68.36h44.8l29.18,40.2,29.96-40.2h42.5l-51.21,67.34,53.26,70.4h-45.31Z"/>
    <path class="st0" d="M679.37,762.21h37.89v72.71c-9.73,7.34-21,12.98-33.8,16.9-12.8,3.93-25.7,5.89-38.66,5.89-18.6,0-35.33-3.97-50.18-11.9-14.85-7.94-26.5-18.94-34.95-33.03-8.46-14.08-12.67-30-12.67-47.75s4.22-33.66,12.67-47.74c8.44-14.08,20.18-25.09,35.2-33.03,15.02-7.94,31.92-11.91,50.7-11.91,15.69,0,29.96,2.65,42.75,7.93,12.8,5.3,23.56,12.98,32.26,23.05l-26.63,24.58c-12.81-13.49-28.25-20.23-46.35-20.23-11.43,0-21.59,2.39-30.47,7.17-8.88,4.77-15.79,11.51-20.74,20.22-4.94,8.71-7.42,18.69-7.42,29.96s2.48,20.99,7.42,29.7c4.96,8.71,11.82,15.49,20.62,20.35,8.78,4.86,18.82,7.3,30.08,7.3,11.94,0,22.7-2.56,32.26-7.67v-52.49Z"/>
    <path class="st0" d="M887,797.03h-104.2c1.88,8.53,6.31,15.27,13.31,20.23,7,4.96,15.71,7.42,26.12,7.42,7.17,0,13.52-1.06,19.07-3.19,5.55-2.14,10.72-5.51,15.49-10.11l21.25,23.04c-12.97,14.85-31.91,22.27-56.83,22.27-15.54,0-29.28-3.02-41.22-9.09-11.94-6.05-21.16-14.46-27.65-25.22-6.49-10.75-9.73-22.95-9.73-36.61s3.19-25.64,9.6-36.48c6.4-10.84,15.18-19.29,26.37-25.35,11.18-6.05,23.68-9.08,37.5-9.08s25.7,2.9,36.62,8.71c10.92,5.8,19.5,14.13,25.73,24.96,6.23,10.84,9.34,23.42,9.34,37.76,0,.51-.25,4.09-.76,10.75ZM793.55,752.74c-6.15,5.11-9.9,12.11-11.26,20.99h67.85c-1.38-8.71-5.13-15.66-11.27-20.87-6.14-5.21-13.65-7.81-22.52-7.81s-16.64,2.56-22.79,7.68Z"/>
    <path class="st0" d="M1039.46,730.21c10.5,10.25,15.74,25.43,15.74,45.57v78.86h-39.94v-72.71c0-10.92-2.39-19.07-7.17-24.45-4.77-5.38-11.69-8.07-20.74-8.07-10.07,0-18.09,3.11-24.06,9.34-5.98,6.24-8.97,15.49-8.97,27.79v68.1h-39.94v-137.74h38.15v16.13c5.28-5.8,11.85-10.27,19.71-13.44,7.85-3.15,16.48-4.73,25.87-4.73,17.06,0,30.84,5.11,41.34,15.35Z"/>
  </g>
  <g>
    <path class="st1" d="M57.6,909.92h12.52l-13.49,67.49h-12.54l13.5-67.49Z"/>
    <path class="st1" d="M125.72,929.87c3.38,3.03,5.06,7.3,5.06,12.83,0,1.54-.22,3.6-.67,6.17l-5.7,28.54h-12.05l5.59-28.25c.26-1.28.39-2.6.39-3.95,0-6.24-3.44-9.36-10.31-9.36-4.44,0-8.1,1.24-10.99,3.72-2.9,2.47-4.86,6.18-5.89,11.13l-5.4,26.71h-12.05l10.23-51.5h11.48l-1.17,5.7c4.63-4.18,10.55-6.27,17.75-6.27,5.78,0,10.36,1.52,13.74,4.53Z"/>
    <path class="st1" d="M191.78,929.87c3.38,3.03,5.06,7.3,5.06,12.83,0,1.54-.22,3.6-.67,6.17l-5.7,28.54h-12.05l5.59-28.25c.26-1.28.39-2.6.39-3.95,0-6.24-3.44-9.36-10.31-9.36-4.44,0-8.1,1.24-10.99,3.72-2.9,2.47-4.86,6.18-5.89,11.13l-5.4,26.71h-12.05l10.23-51.5h11.48l-1.17,5.7c4.63-4.18,10.55-6.27,17.75-6.27,5.78,0,10.36,1.52,13.74,4.53Z"/>
    <path class="st1" d="M218.58,975.25c-3.77-1.9-6.67-4.56-8.73-7.96-2.05-3.41-3.08-7.36-3.08-11.86,0-5.72,1.31-10.86,3.91-15.42,2.6-4.57,6.24-8.16,10.9-10.76,4.66-2.6,9.91-3.91,15.76-3.91,5.01,0,9.42.94,13.21,2.8,3.8,1.86,6.72,4.5,8.78,7.91,2.06,3.4,3.08,7.36,3.08,11.85,0,5.72-1.32,10.86-3.95,15.43-2.64,4.57-6.29,8.17-10.95,10.79-4.66,2.64-9.91,3.95-15.76,3.95-5.01,0-9.4-.94-13.16-2.84ZM241.63,965.31c2.66-1.64,4.77-3.92,6.31-6.85,1.54-2.92,2.32-6.25,2.32-9.98,0-4.05-1.19-7.22-3.57-9.5-2.38-2.27-5.72-3.41-10.03-3.41-3.41,0-6.45.81-9.11,2.46-2.67,1.64-4.78,3.92-6.32,6.84-1.54,2.93-2.32,6.25-2.32,9.98,0,4.05,1.19,7.22,3.58,9.5,2.38,2.28,5.72,3.43,10.03,3.43,3.4,0,6.44-.82,9.11-2.46Z"/>
    <path class="st1" d="M325.56,925.92l-32.3,51.5h-12.44l-11.86-51.5h11.86l8.58,38.29,24.01-38.29h12.15Z"/>
    <path class="st1" d="M381.87,925.92l-10.22,51.5h-11.48l1.06-5.31c-4.5,3.99-10.09,5.98-16.77,5.98-4.25,0-8.09-.89-11.52-2.7-3.44-1.8-6.16-4.41-8.15-7.86-2-3.44-2.99-7.47-2.99-12.1,0-5.72,1.27-10.88,3.8-15.48,2.54-4.59,6.01-8.18,10.42-10.75,4.4-2.57,9.33-3.86,14.81-3.86,8.23,0,14.08,2.74,17.55,8.2l1.44-7.63h12.05ZM356.66,965.31c2.67-1.64,4.78-3.92,6.32-6.85,1.54-2.92,2.31-6.25,2.31-9.98,0-4.05-1.19-7.22-3.57-9.5-2.38-2.27-5.72-3.41-10.03-3.41-3.4,0-6.44.81-9.11,2.46-2.67,1.64-4.77,3.92-6.31,6.84-1.54,2.93-2.32,6.25-2.32,9.98,0,4.05,1.19,7.22,3.57,9.5,2.38,2.28,5.72,3.43,10.03,3.43,3.4,0,6.44-.82,9.11-2.46Z"/>
    <path class="st1" d="M404.44,960.16c-.13,1.02-.19,1.77-.19,2.21,0,3.86,2.02,5.79,6.07,5.79,2.51,0,4.76-.68,6.74-2.02l2.12,8.86c-3.27,2.06-7.42,3.08-12.43,3.08-4.44,0-8-1.21-10.71-3.66-2.7-2.44-4.05-5.81-4.05-10.12,0-1.41.13-2.77.39-4.05l4.92-24.31h-8.39l1.93-9.64h8.39l2.31-11.76h12.05l-2.4,11.76h13.88l-1.93,9.64h-13.88l-4.83,24.21Z"/>
    <path class="st1" d="M438.57,925.92h12.05l-10.22,51.5h-12.05l10.22-51.5ZM442.14,915.46c-1.34-1.32-2.02-2.91-2.02-4.78,0-2.18.75-4.01,2.27-5.5,1.51-1.47,3.48-2.21,5.93-2.21,2.12,0,3.85.62,5.2,1.88,1.35,1.25,2.02,2.78,2.02,4.58,0,2.38-.75,4.31-2.27,5.78-1.51,1.48-3.48,2.22-5.92,2.22-2.13,0-3.86-.66-5.21-1.98Z"/>
    <path class="st1" d="M514.75,925.92l-32.3,51.5h-12.44l-11.86-51.5h11.86l8.58,38.29,24.01-38.29h12.15Z"/>
    <path class="st1" d="M563.63,955.24h-40.88c.19,8.42,5.14,12.63,14.85,12.63,2.95,0,5.72-.47,8.29-1.4,2.57-.93,4.76-2.22,6.56-3.91l5.01,8.39c-2.64,2.38-5.8,4.17-9.5,5.36s-7.57,1.78-11.62,1.78c-5.14,0-9.63-.93-13.45-2.79-3.83-1.87-6.77-4.52-8.82-7.96-2.06-3.44-3.08-7.4-3.08-11.91,0-5.72,1.26-10.88,3.8-15.48,2.54-4.59,6.07-8.18,10.61-10.75,4.53-2.57,9.63-3.86,15.29-3.86,7.19,0,12.95,2.01,17.26,6.03,4.31,4.03,6.46,9.53,6.46,16.54,0,2.51-.26,4.96-.78,7.33ZM529.75,938.26c-2.86,2.19-4.84,5.18-5.93,8.97h29.51c.06-3.86-1.11-6.86-3.52-9.02-2.41-2.15-5.64-3.23-9.69-3.23s-7.51,1.08-10.37,3.27Z"/>
    <path class="st1" d="M605.1,976.16c-4.76-1.48-8.49-3.38-11.18-5.7l5.3-9.83c2.84,2.25,6.19,4.03,10.08,5.34,3.9,1.32,7.86,1.98,11.91,1.98,4.96,0,8.89-.85,11.82-2.55,2.92-1.71,4.38-4.04,4.38-6.99,0-1.67-.59-3.07-1.78-4.19-1.19-1.13-2.67-2.04-4.44-2.75-1.77-.71-4.23-1.51-7.38-2.4-4.37-1.29-7.9-2.53-10.61-3.72-2.7-1.19-5.01-2.97-6.94-5.34-1.92-2.38-2.88-5.47-2.88-9.26,0-4.37,1.24-8.19,3.71-11.48,2.47-3.27,5.93-5.81,10.37-7.62,4.43-1.8,9.55-2.7,15.33-2.7,4.38,0,8.52.49,12.44,1.49,3.92.99,7.3,2.39,10.12,4.19l-4.92,9.93c-2.51-1.67-5.33-2.95-8.49-3.86-3.14-.89-6.43-1.35-9.83-1.35-5.01,0-8.98.92-11.91,2.75-2.92,1.84-4.39,4.26-4.39,7.27,0,1.74.61,3.19,1.84,4.34,1.22,1.15,2.7,2.07,4.44,2.74,1.73.68,4.27,1.53,7.62,2.57,4.24,1.21,7.71,2.4,10.42,3.57,2.7,1.15,4.99,2.86,6.9,5.11,1.9,2.25,2.84,5.18,2.84,8.77,0,4.44-1.24,8.3-3.71,11.57-2.48,3.28-5.98,5.83-10.51,7.63-4.53,1.79-9.72,2.7-15.57,2.7-5.21,0-10.19-.74-14.95-2.21Z"/>
    <path class="st1" d="M669.76,975.25c-3.75-1.9-6.67-4.56-8.72-7.96-2.06-3.41-3.08-7.36-3.08-11.86,0-5.72,1.29-10.86,3.9-15.42,2.6-4.57,6.24-8.16,10.9-10.76,4.66-2.6,9.91-3.91,15.76-3.91,5.01,0,9.42.94,13.22,2.8,3.79,1.86,6.71,4.5,8.77,7.91,2.06,3.4,3.08,7.36,3.08,11.85,0,5.72-1.32,10.86-3.95,15.43-2.64,4.57-6.27,8.17-10.93,10.79-4.66,2.64-9.92,3.95-15.77,3.95-5.01,0-9.39-.94-13.16-2.84ZM692.8,965.31c2.66-1.64,4.77-3.92,6.32-6.85,1.54-2.92,2.31-6.25,2.31-9.98,0-4.05-1.19-7.22-3.57-9.5-2.38-2.27-5.72-3.41-10.03-3.41-3.4,0-6.45.81-9.11,2.46-2.67,1.64-4.78,3.92-6.32,6.84-1.54,2.93-2.31,6.25-2.31,9.98,0,4.05,1.19,7.22,3.57,9.5,2.38,2.28,5.72,3.43,10.03,3.43,3.4,0,6.44-.82,9.11-2.46Z"/>
    <path class="st1" d="M733.92,905.87h12.05l-14.27,71.54h-12.05l14.27-71.54Z"/>
    <path class="st1" d="M807.69,925.92l-10.31,51.5h-11.48l1.15-5.69c-4.63,4.24-10.44,6.36-17.44,6.36-5.66,0-10.18-1.52-13.55-4.58-3.38-3.05-5.07-7.34-5.07-12.87,0-2.06.24-4.12.68-6.18l5.69-28.54h12.05l-5.69,28.26c-.26,1.28-.39,2.6-.39,3.95,0,3.01.85,5.33,2.55,6.93,1.71,1.61,4.26,2.41,7.66,2.41,4.38,0,8-1.24,10.9-3.71,2.9-2.47,4.83-6.19,5.79-11.13l5.39-26.72h12.05Z"/>
    <path class="st1" d="M830.16,960.16c-.13,1.02-.19,1.77-.19,2.21,0,3.86,2.02,5.79,6.07,5.79,2.51,0,4.76-.68,6.76-2.02l2.12,8.86c-3.28,2.06-7.43,3.08-12.44,3.08-4.44,0-8-1.21-10.7-3.66-2.71-2.44-4.05-5.81-4.05-10.12,0-1.41.12-2.77.38-4.05l4.92-24.31h-8.39l1.93-9.64h8.39l2.32-11.76h12.05l-2.41,11.76h13.88l-1.92,9.64h-13.89l-4.83,24.21Z"/>
    <path class="st1" d="M864.29,925.92h12.05l-10.22,51.5h-12.05l10.22-51.5ZM867.86,915.46c-1.35-1.32-2.02-2.91-2.02-4.78,0-2.18.75-4.01,2.27-5.5,1.51-1.47,3.48-2.21,5.92-2.21,2.13,0,3.86.62,5.21,1.88,1.34,1.25,2.02,2.78,2.02,4.58,0,2.38-.77,4.31-2.27,5.78-1.51,1.48-3.48,2.22-5.93,2.22-2.12,0-3.85-.66-5.2-1.98Z"/>
    <path class="st1" d="M894.23,975.25c-3.75-1.9-6.67-4.56-8.72-7.96-2.06-3.41-3.08-7.36-3.08-11.86,0-5.72,1.29-10.86,3.9-15.42,2.6-4.57,6.24-8.16,10.9-10.76,4.66-2.6,9.91-3.91,15.76-3.91,5.01,0,9.42.94,13.22,2.8,3.79,1.86,6.71,4.5,8.77,7.91,2.06,3.4,3.08,7.36,3.08,11.85,0,5.72-1.32,10.86-3.95,15.43-2.64,4.57-6.27,8.17-10.93,10.79-4.66,2.64-9.92,3.95-15.77,3.95-5.01,0-9.39-.94-13.16-2.84ZM917.28,965.31c2.66-1.64,4.77-3.92,6.32-6.85,1.54-2.92,2.31-6.25,2.31-9.98,0-4.05-1.19-7.22-3.57-9.5-2.38-2.27-5.72-3.41-10.03-3.41-3.4,0-6.45.81-9.11,2.46-2.67,1.64-4.78,3.92-6.32,6.84-1.54,2.93-2.31,6.25-2.31,9.98,0,4.05,1.19,7.22,3.57,9.5,2.38,2.28,5.72,3.43,10.03,3.43,3.4,0,6.44-.82,9.11-2.46Z"/>
    <path class="st1" d="M996.14,929.87c3.38,3.03,5.06,7.3,5.06,12.83,0,1.54-.22,3.6-.67,6.17l-5.69,28.54h-12.05l5.59-28.25c.25-1.28.38-2.6.38-3.95,0-6.24-3.44-9.36-10.31-9.36-4.44,0-8.1,1.24-10.99,3.72-2.9,2.47-4.85,6.18-5.89,11.13l-5.39,26.71h-12.05l10.22-51.5h11.48l-1.17,5.7c4.64-4.18,10.55-6.27,17.75-6.27,5.78,0,10.36,1.52,13.74,4.53Z"/>
    <path class="st1" d="M1015.25,976.49c-3.95-1.06-7.03-2.39-9.22-4l5.01-9.25c2.13,1.54,4.79,2.77,8,3.66,3.21.91,6.52,1.35,9.93,1.35,3.86,0,6.77-.53,8.72-1.59,1.97-1.07,2.94-2.59,2.94-4.59,0-1.54-.81-2.66-2.46-3.37-1.64-.71-4.23-1.45-7.76-2.22-3.66-.71-6.67-1.46-9.02-2.26-2.34-.8-4.38-2.12-6.07-3.95-1.71-1.84-2.55-4.36-2.55-7.57,0-5.33,2.22-9.56,6.7-12.68,4.47-3.12,10.39-4.68,17.8-4.68,3.53,0,6.97.4,10.31,1.21,3.34.8,6.07,1.87,8.19,3.23l-4.43,9.26c-2.13-1.35-4.52-2.35-7.19-2.99-2.66-.65-5.34-.97-8.05-.97-3.79,0-6.66.58-8.63,1.73-1.97,1.15-2.94,2.67-2.94,4.53,0,1.67.85,2.88,2.55,3.61,1.71.74,4.36,1.49,7.96,2.27,3.6.71,6.56,1.46,8.88,2.26,2.31.81,4.31,2.11,5.98,3.91,1.67,1.8,2.51,4.25,2.51,7.33,0,5.53-2.26,9.8-6.76,12.82-4.5,3.03-10.48,4.53-17.93,4.53-4.38,0-8.53-.53-12.49-1.59Z"/>
  </g>
</svg>